HIERARCHY
ROOT Elbow
{
	OFFSET	0.00	0.00	0.00
	CHANNELS 6 Xposition Yposition Zposition Zrotation Xrotation Yrotation
	JOINT L_Wrist
	{
		OFFSET	 0.208349	 0.000000	 0.000000
		CHANNELS 3 Zrotation Xrotation Yrotation
		JOINT L_index_Proximal
		{
			OFFSET	 0.093499	 0.010637	-0.002084
			CHANNELS 3 Zrotation Xrotation Yrotation
			JOINT L_index_b
			{
				OFFSET	 0.033153	 0.000000	 0.000000
				CHANNELS 3 Zrotation Xrotation Yrotation
				JOINT L_index_c
				{
					OFFSET	 0.018651	 0.000000	 0.000000
					CHANNELS 3 Zrotation Xrotation Yrotation
					End Site
					{
						OFFSET	 0.018651	 0.000000	 0.000000
					}
				}
			}
		}
		JOINT L_middle_Proximal
		{
			OFFSET	 0.090632	-0.006115	-0.003750
			CHANNELS 3 Zrotation Xrotation Yrotation
			JOINT L_middle_b
			{
				OFFSET	 0.037194	 0.000000	 0.000000
				CHANNELS 3 Zrotation Xrotation Yrotation
				JOINT L_middle_c
				{
					OFFSET	 0.021943	 0.000000	 0.000000
					CHANNELS 3 Zrotation Xrotation Yrotation
					End Site
					{
						OFFSET	 0.021943	 0.000000	 0.000000
					}
				}
			}
		}
		JOINT L_pinky_Proximal
		{
			OFFSET	 0.074015	-0.035449	-0.000417
			CHANNELS 3 Zrotation Xrotation Yrotation
			JOINT L_pinky_b
			{
				OFFSET	 0.027285	 0.000000	 0.000000
				CHANNELS 3 Zrotation Xrotation Yrotation
				JOINT L_pinky_c
				{
					OFFSET	 0.015093	 0.000000	 0.000000
					CHANNELS 3 Zrotation Xrotation Yrotation
					End Site
					{
						OFFSET	 0.015093	 0.000000	 0.000000
					}
				}
			}
		}
		JOINT L_ring_Proximal
		{
			OFFSET	 0.082801	-0.021859	-0.003750
			CHANNELS 3 Zrotation Xrotation Yrotation
			JOINT L_ring_b
			{
				OFFSET	 0.034478	 0.000000	 0.000000
				CHANNELS 3 Zrotation Xrotation Yrotation
				JOINT L_ring_c
				{
					OFFSET	 0.021377	 0.000000	 0.000000
					CHANNELS 3 Zrotation Xrotation Yrotation
					End Site
					{
						OFFSET	 0.021377	 0.000000	 0.000000
					}
				}
			}
		}
		JOINT L_thumb_Proximal
		{
			OFFSET	 0.030306	 0.018528	 0.004584
			CHANNELS 3 Zrotation Xrotation Yrotation
			JOINT L_thumb_a
			{
				OFFSET	 0.038520	 0.000000	 0.000000
				CHANNELS 3 Zrotation Xrotation Yrotation
				JOINT L_thumb_b
				{
					OFFSET	 0.026310	 0.000000	 0.000000
					CHANNELS 3 Zrotation Xrotation Yrotation
					End Site
					{
						OFFSET	 0.026310	 0.000000	 0.000000
					}
				}
			}
		}
	}
}
MOTION
Frames:    12
Frame Time: 0.01666667
 0.188163	-0.207556	 0.784501	 75.360860	 43.747110	 57.103900	-9.492394	 4.472957	 26.336690	-4.131278	 3.383075	-74.985570	-4.079749	 3.826249	-86.324470	-1.446174	 0.525692	-39.951610	-9.658020	-8.475040	-80.585120	 3.682737	-3.854986	-92.620000	 3.730703	-1.518108	-44.273370	-30.055330	-16.810060	-89.541710	 1.909847	-1.690354	-83.022300	 4.783290	-1.705978	-39.239930	-18.195480	-12.102670	-88.196980	 4.922934	-5.056397	-91.534600	 5.107958	-1.858305	-39.962330	 62.494110	 58.540680	-23.056590	-1.505559	 0.004790	-0.365369	 2.960420	-0.311736	-12.020880
 0.188102	-0.207847	 0.784553	 75.256110	 43.776860	 57.240410	-9.467057	 4.483323	 26.402740	-4.070381	 3.326987	-74.930500	-3.978217	 3.728285	-86.282310	-1.376026	 0.499217	-39.880700	-9.645637	-8.485502	-80.548270	 3.699578	-3.873453	-92.632520	 3.763108	-1.531445	-44.276900	-30.075260	-16.790560	-89.480010	 1.897968	-1.681075	-83.063100	 4.737497	-1.690219	-39.252220	-18.214450	-12.079950	-88.180600	 4.926900	-5.064109	-91.575650	 5.105423	-1.856388	-39.942700	 62.614650	 58.489940	-23.215860	-1.483948	 0.004420	-0.341046	 2.996011	-0.314056	-11.965190
 0.188041	-0.207957	 0.784668	 75.182000	 43.799450	 57.321590	-9.440307	 4.484768	 26.411980	-4.051508	 3.308864	-74.912850	-3.943182	 3.693909	-86.258610	-1.367295	 0.495685	-39.854130	-9.644055	-8.487312	-80.520950	 3.717752	-3.893172	-92.642720	 3.760039	-1.529807	-44.266780	-30.090440	-16.775150	-89.476910	 1.886046	-1.670971	-83.078390	 4.704480	-1.678696	-39.258240	-18.229060	-12.064280	-88.175710	 4.922314	-5.061059	-91.594360	 5.097574	-1.853122	-39.934190	 62.626650	 58.481060	-23.253760	-1.487706	 0.004101	-0.315066	 3.002834	-0.313883	-11.932020
 0.187993	-0.208052	 0.784703	 75.037350	 43.847210	 57.445830	-9.372477	 4.481282	 26.389690	-4.002835	 3.265810	-74.907250	-3.876670	 3.627110	-86.187820	-1.314029	 0.477116	-39.909890	-9.669765	-8.461667	-80.470060	 3.720674	-3.896734	-92.649990	 3.757368	-1.529884	-44.297180	-30.151190	-16.712580	-89.432310	 1.841828	-1.632524	-83.104390	 4.658745	-1.665428	-39.324830	-18.277630	-12.009860	-88.126020	 4.890339	-5.030479	-91.620630	 5.053560	-1.838071	-39.953540	 62.634450	 58.445840	-23.411050	-1.487503	 0.003398	-0.260456	 3.021674	-0.311348	-11.763000
 0.188002	-0.208042	 0.784715	 74.975580	 43.878100	 57.492640	-9.354980	 4.480981	 26.387910	-3.988255	 3.251074	-74.869110	-3.840331	 3.592582	-86.179310	-1.294064	 0.469942	-39.915150	-9.671786	-8.459202	-80.443580	 3.726913	-3.903683	-92.656180	 3.747578	-1.526009	-44.300480	-30.162240	-16.700280	-89.429820	 1.835275	-1.627185	-83.120870	 4.633105	-1.657217	-39.346130	-18.285060	-12.000720	-88.106520	 4.888689	-5.029552	-91.629420	 5.049411	-1.837396	-39.970490	 62.651630	 58.431830	-23.456300	-1.495904	 0.003338	-0.256233	 3.027661	-0.311712	-11.753790
 0.187858	-0.208001	 0.784775	 74.884690	 43.912460	 57.567570	-9.313328	 4.479345	 26.377410	-3.943690	 3.209691	-74.826790	-3.783345	 3.536448	-86.133730	-1.271822	 0.461992	-39.926920	-9.658471	-8.471383	-80.436830	 3.724606	-3.899583	-92.631300	 3.720539	-1.515404	-44.311300	-30.181320	-16.676500	-89.480380	 1.803657	-1.598486	-83.096540	 4.585826	-1.641626	-39.375510	-18.294860	-11.989370	-88.134700	 4.878164	-5.018770	-91.630000	 5.000495	-1.821521	-40.009810	 62.574310	 58.434730	-23.488680	-1.506705	 0.003002	-0.229087	 3.024148	-0.310246	-11.712920
 0.187809	-0.208021	 0.784808	 74.813420	 43.934260	 57.619840	-9.293934	 4.478241	 26.370460	-3.918428	 3.185575	-74.812090	-3.733563	 3.490585	-86.144990	-1.246509	 0.453076	-39.947910	-9.654725	-8.475904	-80.435550	 3.726813	-3.901418	-92.624530	 3.707339	-1.510509	-44.324050	-30.195940	-16.660110	-89.511470	 1.792616	-1.588438	-83.087330	 4.567151	-1.635919	-39.397500	-18.303650	-11.980850	-88.162770	 4.873011	-5.013256	-91.627450	 4.983842	-1.816601	-40.033320	 62.565320	 58.423400	-23.538510	-1.514756	 0.002564	-0.195499	 3.022150	-0.308980	-11.672160
 0.187627	-0.208061	 0.784950	 74.665470	 43.960380	 57.719680	-9.308255	 4.486866	 26.425360	-3.902185	 3.169776	-74.748280	-3.674446	 3.437483	-86.180970	-1.162368	 0.422035	-39.910440	-9.633752	-8.494177	-80.385110	 3.749670	-3.927034	-92.649120	 3.720159	-1.515128	-44.307980	-30.182920	-16.669740	-89.534450	 1.792872	-1.588220	-83.071640	 4.603247	-1.650875	-39.442000	-18.308140	-11.973550	-88.203010	 4.862453	-5.003081	-91.635400	 5.004233	-1.825809	-40.069110	 62.559200	 58.407870	-23.599740	-1.510999	 0.002135	-0.162398	 3.034730	-0.309305	-11.637860
 0.187487	-0.208030	 0.785074	 74.656770	 43.959190	 57.736920	-9.312007	 4.496401	 26.486080	-3.899053	 3.167300	-74.687990	-3.648506	 3.413686	-86.189100	-1.072324	 0.389607	-39.935110	-9.634484	-8.489626	-80.392310	 3.738703	-3.913891	-92.624860	 3.748686	-1.527232	-44.319970	-30.203850	-16.640620	-89.584720	 1.771912	-1.569141	-83.053100	 4.610463	-1.655205	-39.480450	-18.316230	-11.960970	-88.250420	 4.847178	-4.984186	-91.598890	 5.013884	-1.830622	-40.094760	 62.562180	 58.403360	-23.627500	-1.504267	 0.002483	-0.188324	 3.030764	-0.309732	-11.667520
 0.187354	-0.207905	 0.785164	 74.636800	 43.989400	 57.791650	-9.320595	 4.507092	 26.554320	-3.901527	 3.157049	-74.461360	-3.596169	 3.366719	-86.223250	-1.057075	 0.382517	-39.785490	-9.618000	-8.505343	-80.401310	 3.736867	-3.908593	-92.575420	 3.774434	-1.538975	-44.352750	-30.215290	-16.631450	-89.526770	 1.738991	-1.539710	-83.043280	 4.600946	-1.653616	-39.520750	-18.329900	-11.945620	-88.260990	 4.845257	-4.981505	-91.590770	 5.050493	-1.844274	-40.100270	 62.504360	 58.413730	-23.616760	-1.500702	 0.002560	-0.196763	 3.057574	-0.312866	-11.681600
 0.187200	-0.207818	 0.785190	 74.639280	 43.984460	 57.802780	-9.328180	 4.514378	 26.600770	-3.929992	 3.176738	-74.354000	-3.589610	 3.362903	-86.262640	-1.024240	 0.369670	-39.689850	-9.626738	-8.496359	-80.395210	 3.711495	-3.882611	-92.583780	 3.754358	-1.530007	-44.332780	-30.225480	-16.621950	-89.490380	 1.717123	-1.521291	-83.078320	 4.587374	-1.648640	-39.518640	-18.334920	-11.939060	-88.209520	 4.817766	-4.954257	-91.602430	 5.055432	-1.845261	-40.084210	 62.488220	 58.420830	-23.595750	-1.510762	 0.003055	-0.232195	 3.053070	-0.313669	-11.730260
 0.186924	-0.207635	 0.785254	 74.629040	 43.975360	 57.816060	-9.360658	 4.519682	 26.634590	-3.955823	 3.195436	-74.295050	-3.607429	 3.375497	-86.192840	-1.063710	 0.383726	-39.671170	-9.630834	-8.493034	-80.444130	 3.690464	-3.858753	-92.555900	 3.724410	-1.517704	-44.330140	-30.234260	-16.613700	-89.489600	 1.691048	-1.498649	-83.095540	 4.559867	-1.639841	-39.542850	-18.345130	-11.928850	-88.231060	 4.801961	-4.939044	-91.614350	 5.047555	-1.842439	-40.085230	 62.480780	 58.431980	-23.554700	-1.519272	 0.003756	-0.281732	 3.046873	-0.314942	-11.799390
